# xmcd
#
# Track frame offsets:
#	150
#	14562
#	29147
#	46019
#	63107
#	77672
#	97572
#	125615
#	148458
#	160249
#	174572
#	187103
#	208299
#	229034
#	240302
#	261456
#	281603
#	300362
#
# Disc length: 4471 seconds
#
# Revision: 1
# Processed by: cddbd v1.5.2PL0 Copyright (c) Steve Scherf et al.
# Submitted via: audiograbber 1.83.01
#
DISCID=fb117512
DTITLE=Woodbox Gang - Drunk as Dragons
DYEAR=2008
DGENRE=Country Punk
TTITLE0=1 Shadow Of Tom
TTITLE1=2 Drunk As Dragons
TTITLE2=3 Tough Guy Blues
TTITLE3=4 Almost Enough
TTITLE4=5 The Muse
TTITLE5=6 Train Back To Texas
TTITLE6=7 Bad Veins
TTITLE7=8 Dusty, Dozer, And Grandpa
TTITLE8=9 Dirty Sponge
TTITLE9=10 Everybody But Me
TTITLE10=BETTER PLACE TO DIE 08
TTITLE11=I ROLL MY OWN 08
TTITLE12=SOAP IN MY MOUTH 08
TTITLE13=NEVER KISSED A GIRL 08
TTITLE14=FAMILY NIGHT 08
TTITLE15=GODBOX WAGON 08
TTITLE16=TERMITE SONG 08
TTITLE17=DEVIL_S GOT DIBS 08
EXTD=
EXTT0=
EXTT1=
EXTT2=
EXTT3=
EXTT4=
EXTT5=
EXTT6=
EXTT7=
EXTT8=
EXTT9=
EXTT10=
EXTT11=
EXTT12=
EXTT13=
EXTT14=
EXTT15=
EXTT16=
EXTT17=
PLAYORDER=
